<?xml version="1.0" encoding="utf-8"?>
<!-- Generator: Adobe Illustrator 25.4.1, SVG Export Plug-In . SVG Version: 6.00 Build 0)  -->
<svg version="1.1" id="Layer_1" xmlns="http://www.w3.org/2000/svg" xmlns:xlink="http://www.w3.org/1999/xlink" x="0px" y="0px"
	 viewBox="0 0 50 18.9" style="enable-background:new 0 0 50 18.9;" xml:space="preserve">
<style type="text/css">
	.st0{fill:#34D9C3;}
</style>
<g>
	<path class="st0" d="M50,3.7c0-0.5-0.2-0.9-0.5-1.2c-0.3-0.3-0.8-0.4-1.2-0.4H47V0.3C47,0.1,46.9,0,46.7,0c-0.2,0-0.3,0.1-0.3,0.3
		v5.4c0,0.3,0.1,0.6,0.2,0.8h-2.8c0,0-0.4,0-0.7-0.2c-0.2-0.1-0.2-0.3-0.2-0.6V5.3c0,0,0.6,0,1,0c0.2,0,0.8,0,1.3-0.4
		c0.3-0.3,0.5-0.7,0.5-1.2c0-0.5-0.1-0.9-0.4-1.1c-0.1-0.1-0.4-0.4-1.3-0.4c-0.5,0-0.9,0-1.3,0.4c-0.2,0.2-0.4,0.5-0.4,0.9v2.3
		c0,0.7,0.4,1.4,1.5,1.4c0,0,3.3,0,4.4,0c0.3,0,0.9,0,1.4-0.4C49.9,6.4,50,6,50,5.6C50,5.6,50,3.7,50,3.7 M42.9,3.4
		c0-0.2,0.1-0.4,0.2-0.5c0.2-0.2,0.6-0.2,0.8-0.2c0.3,0,0.6,0,0.9,0.2C44.9,3.1,45,3.3,45,3.7c0,0.4-0.1,0.6-0.3,0.8
		c-0.3,0.3-0.8,0.3-0.8,0.3c-0.1,0-1,0-1,0V3.4z M49.4,5.6c0,0.3-0.1,0.5-0.2,0.7c-0.3,0.3-0.8,0.3-1,0.3c-0.1,0-0.7,0-0.9-0.2
		C47.1,6.2,47,6,47,5.7v-3c0,0,1.1,0,1.3,0c0.1,0,0.5,0,0.8,0.3c0.2,0.2,0.3,0.4,0.3,0.8C49.4,3.8,49.4,5.4,49.4,5.6"/>
	<path class="st0" d="M38.8,6.6L38.8,6.6c0,0,0.5,0.5,1.3,0.5c0.2,0,0.8,0,1.2-0.4c0.2-0.2,0.4-0.6,0.4-1V2.4c0-0.2-0.1-0.3-0.3-0.3
		S41,2.2,41,2.4l0,3.3c0,0.6-0.4,0.8-0.8,0.8c-0.7,0-1-0.4-1-0.9h0h0l0-3.2c0-0.2-0.1-0.3-0.3-0.3c-0.2,0-0.3,0.1-0.3,0.3l0,3.2h0
		c0,0.5-0.3,0.9-1,0.9c-0.5,0-0.8-0.2-0.8-0.8l0-3.3c0-0.2-0.1-0.3-0.3-0.3c-0.2,0-0.3,0.1-0.3,0.3v3.3c0,0.4,0.1,0.8,0.4,1
		c0.4,0.4,1,0.4,1.2,0.4C38.3,7.1,38.8,6.6,38.8,6.6L38.8,6.6L38.8,6.6z"/>
	<path class="st0" d="M14.9,8c-1-0.9-2.4-0.9-2.7-0.9H4V5c0-0.4-0.3-0.7-0.7-0.7C2.9,4.3,2.6,4.6,2.6,5v2.1H0.7C0.3,7.1,0,7.4,0,7.8
		c0,0.4,0.3,0.7,0.7,0.7h1.9v7.1c0,1,0.3,1.9,0.9,2.4c0.8,0.8,2,0.9,2.8,0.9c0.7,0,1-0.3,1-0.7c0-0.4-0.3-0.7-0.7-0.7
		c-0.7,0-1.5,0-2-0.5C4.2,16.7,4,16.2,4,15.6V8.5c0,0,8.3,0,8.3,0c2,0,2.1,1.3,2.1,2v0.9c0,0-1.9,0-2.3,0c-3.6,0-4.1,2.7-4.1,3.9
		c0,1.2,0.3,2.1,1,2.7c0.5,0.5,1.4,1,3,1c0.9,0,2.1,0,3-0.9c0.5-0.5,0.8-1.2,0.8-2.1v-5.4C15.9,9.4,15.6,8.6,14.9,8 M14.5,15.9
		c0,0.5-0.1,0.9-0.4,1.2c-0.5,0.5-1.3,0.4-2,0.4c-0.6,0-1.5,0-2.1-0.5c-0.4-0.4-0.6-0.9-0.6-1.7c0-0.8,0.3-2.5,2.6-2.5
		c0.5,0,2.4,0,2.4,0V15.9z"/>
	<path class="st0" d="M34.7,8c-1-0.9-2.4-0.9-2.7-0.9l-6,0V2.8c0-0.4-0.3-0.7-0.7-0.7s-0.7,0.3-0.7,0.7v4.2h-2.9c-0.4,0-1.8,0-2.9,1
		c-0.8,0.7-1.2,1.7-1.2,2.9c0,1.2,0,2,0,4.3c0,1.1,0.3,1.9,1,2.6c1,1,2.4,1,3.2,1c0.9,0,2.4,0,3.3-0.9c0.6-0.6,0.9-1.4,0.9-2.4V8.5
		c0,0,6,0,6,0c2,0,2.1,1.3,2.1,2v0.9c0,0-1.5,0-2.3,0c-0.4,0-1.9,0-3,1c-0.8,0.7-1.2,1.7-1.2,2.9c0,1.2,0.3,2.1,1,2.7
		c0.3,0.3,1,1,3,1c1.1,0,2.2,0,3.1-0.9c0.5-0.5,0.8-1.3,0.8-2.2v-5.4C35.7,9.4,35.3,8.6,34.7,8 M24.6,15.6c0,0.7-0.2,1.1-0.5,1.4
		c-0.5,0.5-1.9,0.5-2.1,0.5c-0.6,0-1.8,0-2.5-0.6c-0.4-0.4-0.6-0.9-0.6-1.6c0-0.4,0-3.3,0-4.3c0-0.8,0.2-1.5,0.7-1.9
		c0.6-0.6,1.5-0.6,1.8-0.6h3V15.6z M34.2,15.9c0,0.5-0.1,0.9-0.4,1.2c-0.5,0.5-1.3,0.4-2,0.4c-0.6,0-1.5,0-2.1-0.5
		c-0.4-0.4-0.6-0.9-0.6-1.7c0-0.8,0.2-1.5,0.7-1.9c0.7-0.7,1.8-0.6,1.9-0.6c0.3,0,2.4,0,2.4,0V15.9z"/>
</g>
</svg>
